<svg xmlns="http://www.w3.org/2000/svg" viewBox="0 0 252.47 52.37"><defs><style>.cls-1{fill:#1c1632}</style></defs><g id="Layer_2" data-name="Layer 2"><g id="Layer_1-2" data-name="Layer 1"><path class="cls-1" d="M77.5 9.63a3.59 3.59 0 0 0-2.17.62 2.66 2.66 0 0 0-.87 1.66 17.91 17.91 0 0 0-.19 2.84v21.23a12.32 12.32 0 0 1-.11 1.59c.52-.06 1.09-.1 1.73-.11s1.17 0 1.63-.07v2.53H66.16v-2a3.89 3.89 0 0 0 2.19-.65 2.58 2.58 0 0 0 .85-1.66 16.72 16.72 0 0 0 .19-2.81V11.55c0-.67.07-1.18.1-1.64l-1.71.1-1.66.09V7.6H77.5ZM81.51 39.87v-1.93a2.46 2.46 0 0 0 1.94-.65 3.2 3.2 0 0 0 .67-1.8c.07-.76.11-1.66.11-2.67V21.64a11.66 11.66 0 0 1 .19-1.64h-1.66c-.59 0-1.12 0-1.62.07v-2.42a19.41 19.41 0 0 0 3.25-.21 7.3 7.3 0 0 0 1.8-.48 3 3 0 0 0 1-.6h1.61a6.54 6.54 0 0 1 .11 1.08c0 .42 0 .86.07 1.32a12 12 0 0 1 3.25-1.94 9.44 9.44 0 0 1 3.53-.74 7.87 7.87 0 0 1 3.76.81 6.11 6.11 0 0 1 2.37 2.28 15.31 15.31 0 0 1 3.64-2.17 10.05 10.05 0 0 1 4-.88q3.91 0 5.81 2.33t1.84 7.77l-.05 8v1.68a12.79 12.79 0 0 1-.16 1.73l1.52-.07 1.43-.07v2.44h-10.19v-1.99a2.23 2.23 0 0 0 1.82-.65 3.27 3.27 0 0 0 .64-1.8 26 26 0 0 0 .12-2.67v-6.64a10 10 0 0 0-1.2-5.35 4 4 0 0 0-3.5-1.7 6.46 6.46 0 0 0-2.63.57 9.43 9.43 0 0 0-2.31 1.46 10.36 10.36 0 0 1 .35 1.73 15.47 15.47 0 0 1 .12 1.95v11c0 .57-.14 1.16-.24 1.73l1.5-.07 1.41-.07v2.44H95.57v-1.93a2.39 2.39 0 0 0 1.92-.65 3.27 3.27 0 0 0 .64-1.8 26 26 0 0 0 .12-2.67v-6.68a10.2 10.2 0 0 0-1-5.38 3.66 3.66 0 0 0-3.43-1.68 6 6 0 0 0-2.59.58A7.87 7.87 0 0 0 89 21.11V35.84c0 .57 0 1.16-.11 1.73l1.47-.07 1.39-.07v2.44ZM122.73 51.63v-1.94a2.46 2.46 0 0 0 1.94-.64 3.2 3.2 0 0 0 .66-1.8 26.16 26.16 0 0 0 .12-2.67V21.64c0-.59.08-1.13.14-1.68L124 20c-.58 0-1.12 0-1.61.07v-2.42a19.57 19.57 0 0 0 3.25-.21 7.57 7.57 0 0 0 1.8-.48 2.93 2.93 0 0 0 .94-.6h1.66q0 .47.09 1.11l.09 1.29a10.93 10.93 0 0 1 3.28-2 10 10 0 0 1 3.59-.7 9 9 0 0 1 4.91 1.43 10.27 10.27 0 0 1 3.6 4 12.93 12.93 0 0 1 1.4 6.12 14.19 14.19 0 0 1-1.57 6.78 11.71 11.71 0 0 1-4.24 4.61 10.93 10.93 0 0 1-5.87 1.63 10.13 10.13 0 0 1-2.72-.34 11.31 11.31 0 0 1-2.36-1v8.28c0 .57-.05 1.14-.11 1.73.49 0 1-.06 1.49-.07l1.41-.07v2.44ZM135 38.21a5.24 5.24 0 0 0 3.67-1.31 8 8 0 0 0 2.17-3.55 16.74 16.74 0 0 0 .71-5.05 15.48 15.48 0 0 0-.65-4.49 8 8 0 0 0-2-3.51 4.92 4.92 0 0 0-3.72-1.3 5.67 5.67 0 0 0-2.72.69 7.41 7.41 0 0 0-2.17 1.71v15.34a7.88 7.88 0 0 0 2.14 1.11 7.09 7.09 0 0 0 2.57.36ZM164.31 39.87c-.06-.49-.1-.92-.13-1.29s-.08-.75-.14-1.15a11.36 11.36 0 0 1-3.37 2.38 9.13 9.13 0 0 1-3.73.8 6.9 6.9 0 0 1-5-1.63 5.46 5.46 0 0 1-1.69-4.08 5.74 5.74 0 0 1 1.25-3.69 9.27 9.27 0 0 1 3.27-2.56 18.61 18.61 0 0 1 4.43-1.48 23.88 23.88 0 0 1 4.7-.48V24a12.47 12.47 0 0 0-.28-2.74 3.9 3.9 0 0 0-1.13-2.08 3.74 3.74 0 0 0-2.65-.81 5.75 5.75 0 0 0-2.39.44 3.65 3.65 0 0 0-1.85 1.59 1.78 1.78 0 0 1 .49.86 4.23 4.23 0 0 1 .11.89 2.64 2.64 0 0 1-.55 1.46 2.06 2.06 0 0 1-1.89.76 2 2 0 0 1-1.69-.76 2.89 2.89 0 0 1-.57-1.78 4.2 4.2 0 0 1 1.22-2.95 8.2 8.2 0 0 1 3.34-2 14.48 14.48 0 0 1 4.75-.74c2.64 0 4.62.7 5.93 2.08s1.95 3.57 1.95 6.55v9.41c0 .46 0 1-.05 1.57s-.07 1.19-.14 1.84l1.62-.09h1.57v2.44Zm-.41-11.06a21.84 21.84 0 0 0-3 .41 11.05 11.05 0 0 0-2.79 1 5.76 5.76 0 0 0-2 1.66 4 4 0 0 0-.77 2.45 3 3 0 0 0 1 2.3 3.55 3.55 0 0 0 2.24.74 6.4 6.4 0 0 0 2.86-.62A10.75 10.75 0 0 0 163.9 35c0-.34-.05-.69-.05-1V31.28c0-.75.05-1.58.05-2.47ZM185.75 40.61a11.73 11.73 0 0 1-5.67-1.4 10.65 10.65 0 0 1-4.12-4 12.33 12.33 0 0 1-1.55-6.36 13.06 13.06 0 0 1 .88-4.77 13.24 13.24 0 0 1 2.46-4.08 11.62 11.62 0 0 1 3.78-2.84 11.28 11.28 0 0 1 4.87-1 11.72 11.72 0 0 1 4.66.84 7.25 7.25 0 0 1 3 2.16 4.65 4.65 0 0 1 1 2.91 3.06 3.06 0 0 1-.65 1.93 2.17 2.17 0 0 1-1.84.83 2 2 0 0 1-1.89-.8 3 3 0 0 1-.56-1.6 3.89 3.89 0 0 1 .14-.94 2.26 2.26 0 0 1 .51-.95 2.65 2.65 0 0 0-1.2-1.42 5 5 0 0 0-1.71-.6 8.75 8.75 0 0 0-1.47-.14 6 6 0 0 0-4.73 2.42q-1.9 2.37-1.91 6.84a14.35 14.35 0 0 0 .85 5.12 8.21 8.21 0 0 0 2.52 3.6 6.3 6.3 0 0 0 4 1.38 8.13 8.13 0 0 0 4-1.08 9.54 9.54 0 0 0 3.14-2.75l1.47 1.3a11.5 11.5 0 0 1-3.06 3.27 11.81 11.81 0 0 1-3.51 1.7 12.24 12.24 0 0 1-3.41.43ZM207.61 40.61a9.16 9.16 0 0 1-2.31-.3 5.05 5.05 0 0 1-2.14-1.2 5.87 5.87 0 0 1-1.55-2.6 15 15 0 0 1-.55-4.52l.09-12.59h-3.41v-2.58a4.88 4.88 0 0 0 2.54-.92 8.34 8.34 0 0 0 2.26-2.35 9.27 9.27 0 0 0 1.33-3.18H206v6.45h7.1v2.4l-7.1.09v12.31a13.94 13.94 0 0 0 .3 3.07 4.1 4.1 0 0 0 1 2 2.68 2.68 0 0 0 2 .71 4.39 4.39 0 0 0 2.19-.64 6.74 6.74 0 0 0 2.14-2.13l1.57 1.39a12.41 12.41 0 0 1-2.21 2.53 8.81 8.81 0 0 1-2.12 1.36 7.08 7.08 0 0 1-1.85.56 11.32 11.32 0 0 1-1.41.14ZM216.5 37.94a2.45 2.45 0 0 0 1.94-.65 3.2 3.2 0 0 0 .67-1.8 26.27 26.27 0 0 0 .11-2.67V10.41c0-.54.05-1.11.11-1.73-.52 0-1.07.06-1.66.07l-1.56.07V6.36a20.28 20.28 0 0 0 3.29-.21 9.42 9.42 0 0 0 1.89-.48 3.13 3.13 0 0 0 1-.6h1.76v30.77c0 .57-.08 1.15-.14 1.73l1.5-.07 1.41-.07v2.44H216.5ZM233.93 52.37a4.22 4.22 0 0 1-2.6-.81 2.91 2.91 0 0 1-.46-4.08 2 2 0 0 1 1.63-.78 1.67 1.67 0 0 1 1.59.69 2.69 2.69 0 0 1 .49 1.52v.28a1.39 1.39 0 0 1-.05.32.59.59 0 0 0 .42.05 2.09 2.09 0 0 0 1.1-.56 5 5 0 0 0 1.11-1.43 23.53 23.53 0 0 0 1.24-2.81c.46-1.2 1-2.58 1.52-4.15l-7.23-15.12a37.11 37.11 0 0 1-1.73-4 16 16 0 0 1-.62-2.29l-2.22.1v-2.48h10.19v1.89h-.09c-1.26.13-1.95.6-2.05 1.43a6.59 6.59 0 0 0 .85 3.41l5.07 11.16c.59-1.57 1.18-3.27 1.78-5.12s1.22-3.73 1.86-5.67c.22-.58.44-1.2.67-1.86s.48-1.27.74-1.83a3.6 3.6 0 0 1 .76-1.15l-3 .19v-2.45h7.57v1.89a4.64 4.64 0 0 0-2.52 2 22.13 22.13 0 0 0-1.73 3.74l-5.76 16.25c-.89 2.56-1.72 4.7-2.49 6.44a11.87 11.87 0 0 1-2.56 3.91 4.9 4.9 0 0 1-3.48 1.32Z"/><path d="M0 0v47h47V0Zm31.32 9.17a2.17 2.17 0 1 1-2.18 2.17 2.17 2.17 0 0 1 2.18-2.17ZM23.5 40a16.5 16.5 0 0 1 0-33 2.1 2.1 0 1 1 0 4.19A12.31 12.31 0 1 0 35.81 23.5a2.1 2.1 0 1 1 4.19 0A16.52 16.52 0 0 1 23.5 40Z" style="fill:#ed4a2f"/></g></g></svg>