<?xml version="1.0" encoding="utf-8"?>
<!-- Generator: Adobe Illustrator 19.2.1, SVG Export Plug-In . SVG Version: 6.00 Build 0)  -->
<svg version="1.1" id="layer" xmlns="http://www.w3.org/2000/svg" xmlns:xlink="http://www.w3.org/1999/xlink" x="0px" y="0px"
	 viewBox="0 200 852 200" style="enable-background:new 0 0 652 652;" xml:space="preserve">
<style type="text/css">
	.st0{fill:#E70641;}
	.st1{fill:#231F20;}
</style>
<g>
	<g>
		<path class="st0" d="M83,265.7c32.9,2.8,68.6,19.3,89.3,42.7c26.3,30.1,17.4,60.1-20.2,67.2s-89.3-11.7-115.6-41.8
			c-20.2-23-19.7-46-1.4-58.7l104.3,77L83,265.7z"/>
	</g>
	<g>
		<g>
			<path class="st1" d="M597.8,376l-13.2-52.6c-1.9-6.1-2.8-12.7-3.8-18.8h-0.5c-0.9,6.6-1.4,12.7-3.3,19.3L564,376h-22.5L572,266.6
				h17.9L621.3,376H597.8z"/>
			<path class="st1" d="M251.6,266.1l13.2,52.6c1.9,6.1,2.8,12.7,3.8,18.8h0.5c0.9-6.6,1.4-12.7,3.3-19.3l13.2-52.1H308L277.9,376
				h-17.9l-31.5-109.9H251.6z"/>
			<path class="st1" d="M346.1,266.1V376h-21.6V266.1H346.1z"/>
			<path class="st1" d="M468.7,266.1l10.8,64.8l0,0l8.9-64.8h29.1l11.3,109.5h-22.1l-5.2-78.9h-0.5l-3.3,27.2l-9.4,51.7h-16.9
				L460.7,323l-3.8-24.4v-1.9h-0.5l-2.8,79.4h-23.5l9.4-109.5h29.1V266.1z"/>
			<path class="st1" d="M400.1,266.1c-3.8,2.8-6.6,7-8.5,11.7c-5.6,13.6,0.5,24,5.6,33.4c0.9,1.4,1.4,2.8,2.3,4.2
				c11.7,20.2,16.4,34.8,7.5,55.9c-0.5,1.4-1.9,4.2-1.9,4.2h-26.3c2.8-2.3,6.1-6.1,8-10.3c6.1-14.6-0.9-27.7-8-40.4
				c-8-15.5-16.9-31-7.5-53.1c0.9-1.9,2.8-5.6,2.8-5.6S400.1,266.1,400.1,266.1z"/>
		</g>
	</g>
</g>
</svg>
